<?xml version="1.0" encoding="UTF-8" standalone="no"?>
<svg
   xmlns:dc="http://purl.org/dc/elements/1.1/"
   xmlns:cc="http://creativecommons.org/ns#"
   xmlns:rdf="http://www.w3.org/1999/02/22-rdf-syntax-ns#"
   xmlns:svg="http://www.w3.org/2000/svg"
   xmlns="http://www.w3.org/2000/svg"
   xmlns:sodipodi="http://sodipodi.sourceforge.net/DTD/sodipodi-0.dtd"
   xmlns:inkscape="http://www.inkscape.org/namespaces/inkscape"
   viewBox="0 0 570.18225 72.01149"
   height="72.01149"
   width="570.18225"
   xml:space="preserve"
   version="1.1"
   id="svg2"
   inkscape:version="0.91 r13725"
   sodipodi:docname="notman-logo.svg"><sodipodi:namedview
     pagecolor="#ffffff"
     bordercolor="#666666"
     borderopacity="1"
     objecttolerance="10"
     gridtolerance="10"
     guidetolerance="10"
     inkscape:pageopacity="0"
     inkscape:pageshadow="2"
     inkscape:window-width="1920"
     inkscape:window-height="1006"
     id="namedview4225"
     showgrid="false"
     fit-margin-top="0"
     fit-margin-left="0"
     fit-margin-right="0"
     fit-margin-bottom="0"
     inkscape:zoom="2.0551948"
     inkscape:cx="287.4876"
     inkscape:cy="33.356801"
     inkscape:window-x="0"
     inkscape:window-y="25"
     inkscape:window-maximized="1"
     inkscape:current-layer="svg2" /><metadata
     id="metadata8"><rdf:RDF><cc:Work
         rdf:about=""><dc:format>image/svg+xml</dc:format><dc:type
           rdf:resource="http://purl.org/dc/dcmitype/StillImage" /><dc:title></dc:title></cc:Work></rdf:RDF></metadata><defs
     id="defs6" /><g
     transform="matrix(1.3333333,0,0,-1.3333333,-20.512398,106.65469)"
     id="g10"><g
       transform="scale(0.1,0.1)"
       id="g12"><path
         id="path14"
         style="fill:#615e5f;fill-opacity:1;fill-rule:nonzero;stroke:none"
         d="m 822.75,401.582 c 0,21.035 14.238,35.879 33.621,35.879 20.484,0 33.606,-14.844 33.606,-35.879 0,-19.941 -13.122,-35.332 -34.207,-35.332 -19.368,0 -33.02,15.391 -33.02,35.332 z m -0.582,216.543 c 0,21.055 14.234,35.93 33.602,35.93 20.507,0 33.628,-14.875 33.628,-35.93 0,-19.922 -13.121,-35.344 -34.21,-35.344 -19.387,0 -33.02,15.422 -33.02,35.344"
         inkscape:connector-curvature="0" /><path
         id="path16"
         style="fill:#615e5f;fill-opacity:1;fill-rule:nonzero;stroke:none"
         d="m 932.617,266.25 164.343,527.652 43.23,0 -165.6,-527.652 -41.973,0"
         inkscape:connector-curvature="0" /><path
         id="path18"
         style="fill:#615e5f;fill-opacity:1;fill-rule:nonzero;stroke:none"
         d="m 1076.58,266.25 164.33,527.652 43.23,0 -165.6,-527.652 -41.96,0"
         inkscape:connector-curvature="0" /><path
         id="path20"
         style="fill:#523355;fill-opacity:1;fill-rule:nonzero;stroke:none"
         d="m 1497.06,357.695 70.34,0 0,347.075 -70.34,0 0,88.898 219.53,0 192.48,-327.75 1.55,0 0,238.852 -68.03,0 0,88.898 235.77,0 0,-88.898 -74.21,0 0,-435.981 -117.5,0 -224.17,385.738 -1.55,0 0,-296.832 65.71,0 0,-88.906 -229.58,0 0,88.906"
         inkscape:connector-curvature="0" /><path
         id="path22"
         style="fill:#523355;fill-opacity:1;fill-rule:nonzero;stroke:none"
         d="m 2274.14,552.488 c -46.38,0 -71.89,-37.097 -71.89,-102.808 0,-61.848 27.06,-98.95 71.89,-98.95 46.39,0 72.67,37.102 72.67,101.262 0,63.399 -26.28,100.496 -72.67,100.496 z m 0,-292.195 c -108.22,0 -191.7,70.344 -191.7,191.699 0,128.324 92.76,190.938 191.7,190.938 106.68,0 192.48,-68.024 192.48,-190.938 0,-115.176 -78.07,-191.699 -192.48,-191.699"
         inkscape:connector-curvature="0" /><path
         id="path24"
         style="fill:#523355;fill-opacity:1;fill-rule:nonzero;stroke:none"
         d="m 2490.69,634.43 46.38,0 0,57.203 118.27,83.484 0,-140.687 65.71,0 0,-84.258 -65.71,0 0,-158.473 c 0,-31.687 5.42,-37.871 30.15,-37.871 12.37,0 19.32,1.543 35.56,6.953 l 0,-78.847 c -29.37,-12.364 -58.75,-18.555 -87.35,-18.555 -46.38,0 -96.63,22.422 -96.63,87.351 l 0,199.442 -46.38,0 0,84.258"
         inkscape:connector-curvature="0" /><path
         id="path26"
         style="fill:#523355;fill-opacity:1;fill-rule:nonzero;stroke:none"
         d="m 2756.61,634.43 186.3,0 0,-30.149 c 42.51,24.739 78.07,35.559 115.95,35.559 48.7,0 88.89,-17.778 112.09,-50.246 52.56,35.558 93.53,50.246 144.55,50.246 66.47,0 125.22,-27.828 125.22,-120.59 l 0,-166.203 72.67,0 0,-84.258 -190.94,0 0,212.578 c 0,40.199 -14.69,58.754 -47.92,58.754 -25.51,0 -52.57,-8.504 -82.71,-24.73 l 0,-162.344 65.7,0 0,-84.258 -183.98,0 0,212.578 c 0,41.746 -13.91,58.754 -47.15,58.754 -26.28,0 -48.69,-6.957 -83.48,-24.73 l 0,-162.344 65.7,0 0,-84.258 -252,0 0,84.258 68.03,0 0,197.125 -68.03,0 0,84.258"
         inkscape:connector-curvature="0" /><path
         id="path28"
         style="fill:#523355;fill-opacity:1;fill-rule:nonzero;stroke:none"
         d="m 3703.57,430.352 c -30.92,0 -53.34,-19.317 -53.34,-45.606 0,-27.832 20.87,-48.699 47.93,-48.699 23.19,0 41.74,10.047 72.66,37.879 l 0,30.144 c -28.59,18.547 -49.47,26.282 -67.25,26.282 z m 244.27,-161.563 -177.02,0 0,28.613 c -34.01,-23.964 -63.39,-34.023 -98.94,-34.023 -76.53,0 -133.74,48.711 -133.74,114.414 0,71.113 62.62,122.91 149.98,122.91 33.23,0 53.33,-6.191 82.7,-16.238 l 0,20.097 c 0,37.879 -27.82,64.161 -69.57,64.161 -27.05,0 -45.61,-8.504 -66.47,-28.602 l -94.31,16.231 c 29.37,59.523 85.03,86.578 177.01,86.578 119.82,0 171.61,-42.516 171.61,-139.91 l 0,-149.973 58.75,0 0,-84.258"
         inkscape:connector-curvature="0" /><path
         id="path30"
         style="fill:#523355;fill-opacity:1;fill-rule:nonzero;stroke:none"
         d="m 3985.73,634.43 174.7,0 0,-34.016 c 37.88,27.828 68.03,39.426 105.13,39.426 48.7,0 111.32,-26.285 111.32,-124.449 l 0,-162.344 53.33,0 0,-84.258 -171.61,0 0,231.914 c 0,29.371 -12.37,40.961 -34.01,40.961 -20.1,0 -42.52,-8.5 -64.16,-23.961 l 0,-164.656 48.7,0 0,-84.258 -223.4,0 0,84.258 56.43,0 0,197.125 -56.43,0 0,84.258"
         inkscape:connector-curvature="0" /><path
         id="path32"
         style="fill:none;stroke:#523355;stroke-width:40;stroke-linecap:butt;stroke-linejoin:miter;stroke-miterlimit:10;stroke-dasharray:none;stroke-opacity:1"
         d="M 424.094,771.695 C 410.977,760.664 221.879,580.105 185.281,547.219 c -24.031,-21.598 -7.011,-38.188 17.571,-38.188 24.582,0 40.742,0 40.742,0 l 0,-202.91 c 0,-14.519 9.89,-26.297 22.086,-26.297 l 357.558,0 c 12.196,0 22.09,11.778 22.09,26.297 l 0.098,202.91 c 0,0 16.254,0 40.828,0 24.582,0 41.598,16.59 17.574,38.188 -36.601,32.886 -229.766,213.597 -243.203,224.476 -13.441,10.883 -23.43,11.024 -36.531,0 z"
         inkscape:connector-curvature="0" /></g></g></svg>